<?xml version="1.0" encoding="UTF-8" standalone="no"?>
<!DOCTYPE svg PUBLIC "-//W3C//DTD SVG 1.1//EN" "http://www.w3.org/Graphics/SVG/1.1/DTD/svg11.dtd">
<svg width="100%" height="100%" viewBox="0 0 4167 2880" version="1.1" xmlns="http://www.w3.org/2000/svg" xmlns:xlink="http://www.w3.org/1999/xlink" xml:space="preserve" xmlns:serif="http://www.serif.com/" style="fill-rule:evenodd;clip-rule:evenodd;stroke-linejoin:round;stroke-miterlimit:1.41421;">
    <g transform="matrix(1,0,0,1,-53.4852,-60.6166)">
        <path d="M3002.91,1743.96C2997.69,1877.7 2946.78,1977 2858.5,2061.42C2764.68,2151.16 2658.44,2191.86 2464.78,2191.86C2418.24,2191.86 2349.94,2181.03 2259.87,2159.37C2169.8,2137.71 2093.99,2105.22 2032.44,2061.9L2131.52,1822.87C2200.57,1856.9 2259.12,1881.27 2307.16,1895.97C2355.2,1910.66 2405.49,1918.01 2458.03,1918.01C2539.09,1918.01 2600.64,1899.06 2642.67,1861.16C2684.71,1823.25 2702.58,1796.01 2705.72,1743.96C2705.72,1743.96 2479.46,1743.96 2432.92,1743.96C2272.04,1743.96 2138.27,1673.57 2052.7,1560.62C1967.14,1447.68 1924.35,1306.89 1924.35,1138.25C1924.35,968.064 1968.64,825.34 2057.21,710.077C2145.78,594.814 2274.88,537.183 2444.52,537.183C2500.06,537.183 2560.86,549.947 2626.91,575.475C2692.96,601.003 2746.57,632.603 2798.05,674.106C2866.35,729.173 2948.67,851.495 3227.93,1226.02C3568.94,1683.38 4078.11,1743.79 4079.53,1743.96L3002.91,1743.96L3002.91,1743.96ZM1525.78,595.2L1935.81,595.2C1875.67,673.534 1831.43,761.718 1803.08,859.763L1525.78,859.763L1525.78,1272.85C1525.78,1327 1539.29,1371.48 1566.31,1406.29C1593.33,1441.1 1632.37,1458.51 1683.41,1458.51C1702.92,1458.51 1723.94,1455.41 1746.46,1449.23C1764.99,1444.13 1783.51,1437.47 1802.04,1429.24C1825.84,1512.97 1861.15,1589.21 1907.99,1657.95L1910.84,1665.05C1885.32,1686.71 1847.79,1705.28 1798.25,1720.75C1748.87,1736.17 1703.96,1743.91 1663.53,1743.96L1663.54,1743.96L1663.14,1743.96L956.623,1743.96L672.551,1743.96L450.368,1743.96L147.644,1743.96L147.644,1456.85L410.097,1456.85L410.097,1169.7L672.551,1169.7L672.551,882.55L935.665,882.55L935.004,595.393L1197.02,595.393L1197.02,308.3L1525.78,308.3L1525.78,595.2ZM2453.07,822.808C2582.65,822.808 2676.01,953.639 2687.85,1134.79C2692.97,1212.99 2702.08,1446.82 2702.08,1446.82C2702.08,1446.82 2614.27,1447.53 2453.07,1446.77C2323.48,1446.16 2218.28,1306.98 2218.28,1134.79C2218.28,962.602 2323.48,822.808 2453.07,822.808Z" style="fill:rgb(0,168,45);"/>
    </g>
    <g transform="matrix(4.16667,0,0,4.16667,-110.151,250.084)">
        <g transform="matrix(0.99,0,0,0.99,-12.2406,-8.79256)">
            <path d="M112.827,523.709L92.851,523.709L92.851,575.541L80.795,575.541L80.795,523.709L60.819,523.709L60.819,513.061L112.827,513.061L112.827,523.709Z" style="fill:rgb(49,49,49);fill-rule:nonzero;"/>
            <path d="M140.547,576.421C136.792,576.421 133.419,575.775 130.427,574.485C127.435,573.194 124.898,571.449 122.815,569.249C120.732,567.049 119.134,564.511 118.019,561.637C116.904,558.762 116.347,555.741 116.347,552.573C116.347,549.346 116.904,546.295 118.019,543.421C119.134,540.546 120.732,538.009 122.815,535.809C124.898,533.609 127.435,531.863 130.427,530.573C133.419,529.282 136.792,528.637 140.547,528.637C144.302,528.637 147.66,529.282 150.623,530.573C153.586,531.863 156.108,533.609 158.191,535.809C160.274,538.009 161.872,540.546 162.987,543.421C164.102,546.295 164.659,549.346 164.659,552.573C164.659,555.741 164.102,558.762 162.987,561.637C161.872,564.511 160.288,567.049 158.235,569.249C156.182,571.449 153.659,573.194 150.667,574.485C147.675,575.775 144.302,576.421 140.547,576.421ZM128.491,552.573C128.491,554.626 128.799,556.489 129.415,558.161C130.031,559.833 130.882,561.285 131.967,562.517C133.052,563.749 134.328,564.702 135.795,565.377C137.262,566.051 138.846,566.389 140.547,566.389C142.248,566.389 143.832,566.051 145.299,565.377C146.766,564.702 148.042,563.749 149.127,562.517C150.212,561.285 151.063,559.818 151.679,558.117C152.295,556.415 152.603,554.538 152.603,552.485C152.603,550.49 152.295,548.642 151.679,546.941C151.063,545.239 150.212,543.773 149.127,542.541C148.042,541.309 146.766,540.355 145.299,539.681C143.832,539.006 142.248,538.669 140.547,538.669C138.846,538.669 137.262,539.021 135.795,539.725C134.328,540.429 133.052,541.397 131.967,542.629C130.882,543.861 130.031,545.327 129.415,547.029C128.799,548.73 128.491,550.578 128.491,552.573Z" style="fill:rgb(49,49,49);fill-rule:nonzero;"/>
            <path d="M193.787,576.421C190.091,576.421 186.747,575.79 183.755,574.529C180.763,573.267 178.211,571.551 176.099,569.381C173.987,567.21 172.359,564.687 171.215,561.813C170.071,558.938 169.499,555.917 169.499,552.749C169.499,549.463 170.056,546.369 171.171,543.465C172.286,540.561 173.899,538.009 176.011,535.809C178.123,533.609 180.69,531.863 183.711,530.573C186.732,529.282 190.12,528.637 193.875,528.637C197.63,528.637 200.988,529.282 203.951,530.573C206.914,531.863 209.436,533.594 211.519,535.765C213.602,537.935 215.186,540.458 216.271,543.333C217.356,546.207 217.899,549.199 217.899,552.309C217.899,553.071 217.884,553.805 217.855,554.509C217.826,555.213 217.752,555.799 217.635,556.269L181.995,556.269C182.171,558.087 182.611,559.701 183.315,561.109C184.019,562.517 184.928,563.719 186.043,564.717C187.158,565.714 188.419,566.477 189.827,567.005C191.235,567.533 192.702,567.797 194.227,567.797C196.574,567.797 198.788,567.225 200.871,566.081C202.954,564.937 204.376,563.426 205.139,561.549L215.259,564.365C213.558,567.885 210.844,570.774 207.119,573.033C203.394,575.291 198.95,576.421 193.787,576.421ZM205.755,548.613C205.462,545.151 204.186,542.379 201.927,540.297C199.668,538.214 196.926,537.173 193.699,537.173C192.115,537.173 190.634,537.451 189.255,538.009C187.876,538.566 186.659,539.343 185.603,540.341C184.547,541.338 183.682,542.541 183.007,543.949C182.332,545.357 181.936,546.911 181.819,548.613L205.755,548.613Z" style="fill:rgb(49,49,49);fill-rule:nonzero;"/>
            <path d="M242.979,575.805C239.87,575.805 237.054,575.189 234.531,573.957C232.008,572.725 229.823,571.038 227.975,568.897C226.127,566.755 224.704,564.277 223.707,561.461C222.71,558.645 222.211,555.653 222.211,552.485C222.211,549.141 222.739,546.031 223.795,543.157C224.851,540.282 226.318,537.759 228.195,535.589C230.072,533.418 232.331,531.717 234.971,530.485C237.611,529.253 240.515,528.637 243.683,528.637C247.262,528.637 250.4,529.443 253.099,531.057C255.798,532.67 258.027,534.826 259.787,537.525L259.787,529.429L270.083,529.429L270.083,573.341C270.083,576.743 269.438,579.794 268.147,582.493C266.856,585.191 265.082,587.479 262.823,589.357C260.564,591.234 257.866,592.671 254.727,593.669C251.588,594.666 248.171,595.165 244.475,595.165C239.43,595.165 235.191,594.329 231.759,592.657C228.327,590.985 225.379,588.623 222.915,585.573L229.339,579.325C231.099,581.495 233.314,583.197 235.983,584.429C238.652,585.661 241.483,586.277 244.475,586.277C246.294,586.277 248.039,586.027 249.711,585.529C251.383,585.03 252.864,584.253 254.155,583.197C255.446,582.141 256.458,580.791 257.191,579.149C257.924,577.506 258.291,575.57 258.291,573.341L258.291,567.533C256.766,570.173 254.624,572.211 251.867,573.649C249.11,575.086 246.147,575.805 242.979,575.805ZM246.939,566.389C248.23,566.389 249.462,566.183 250.635,565.773C251.808,565.362 252.894,564.805 253.891,564.101C254.888,563.397 255.768,562.575 256.531,561.637C257.294,560.698 257.88,559.701 258.291,558.645L258.291,547.645C257.235,544.946 255.578,542.775 253.319,541.133C251.06,539.49 248.699,538.669 246.235,538.669C244.416,538.669 242.774,539.065 241.307,539.857C239.84,540.649 238.579,541.705 237.523,543.025C236.467,544.345 235.66,545.855 235.103,547.557C234.546,549.258 234.267,551.018 234.267,552.837C234.267,554.714 234.59,556.474 235.235,558.117C235.88,559.759 236.775,561.197 237.919,562.429C239.063,563.661 240.398,564.629 241.923,565.333C243.448,566.037 245.12,566.389 246.939,566.389Z" style="fill:rgb(49,49,49);fill-rule:nonzero;"/>
            <path d="M293.139,576.421C290.91,576.421 288.827,576.054 286.891,575.321C284.955,574.587 283.283,573.561 281.875,572.241C280.467,570.921 279.367,569.381 278.575,567.621C277.783,565.861 277.387,563.925 277.387,561.813C277.387,559.642 277.871,557.633 278.839,555.785C279.807,553.937 281.156,552.367 282.887,551.077C284.618,549.786 286.686,548.774 289.091,548.041C291.496,547.307 294.136,546.941 297.011,546.941C299.064,546.941 301.074,547.117 303.039,547.469C305.004,547.821 306.75,548.319 308.275,548.965L308.275,546.325C308.275,543.274 307.41,540.927 305.679,539.285C303.948,537.642 301.382,536.821 297.979,536.821C295.515,536.821 293.11,537.261 290.763,538.141C288.416,539.021 286.011,540.311 283.547,542.013L279.939,534.533C285.864,530.602 292.259,528.637 299.123,528.637C305.752,528.637 310.9,530.265 314.567,533.521C318.234,536.777 320.067,541.485 320.067,547.645L320.067,561.989C320.067,563.221 320.287,564.101 320.727,564.629C321.167,565.157 321.886,565.45 322.883,565.509L322.883,575.541C320.888,575.951 319.158,576.157 317.691,576.157C315.462,576.157 313.746,575.658 312.543,574.661C311.34,573.663 310.592,572.343 310.299,570.701L310.035,568.149C307.982,570.847 305.488,572.901 302.555,574.309C299.622,575.717 296.483,576.421 293.139,576.421ZM296.483,567.797C298.478,567.797 300.37,567.445 302.159,566.741C303.948,566.037 305.342,565.098 306.339,563.925C307.63,562.927 308.275,561.813 308.275,560.581L308.275,555.301C306.867,554.773 305.342,554.347 303.699,554.025C302.056,553.702 300.472,553.541 298.947,553.541C295.896,553.541 293.403,554.23 291.467,555.609C289.531,556.987 288.563,558.733 288.563,560.845C288.563,562.839 289.326,564.497 290.851,565.817C292.376,567.137 294.254,567.797 296.483,567.797Z" style="fill:rgb(49,49,49);fill-rule:nonzero;"/>
            <path d="M373.747,575.541L361.955,575.541L361.955,549.669C361.955,545.973 361.31,543.274 360.019,541.573C358.728,539.871 356.939,539.021 354.651,539.021C353.478,539.021 352.275,539.255 351.043,539.725C349.811,540.194 348.652,540.854 347.567,541.705C346.482,542.555 345.499,543.567 344.619,544.741C343.739,545.914 343.094,547.205 342.683,548.613L342.683,575.541L330.891,575.541L330.891,529.429L341.539,529.429L341.539,537.965C343.24,535.031 345.704,532.743 348.931,531.101C352.158,529.458 355.795,528.637 359.843,528.637C362.718,528.637 365.064,529.165 366.883,530.221C368.702,531.277 370.11,532.655 371.107,534.357C372.104,536.058 372.794,537.994 373.175,540.165C373.556,542.335 373.747,544.535 373.747,546.765L373.747,575.541Z" style="fill:rgb(49,49,49);fill-rule:nonzero;"/>
            <path d="M415.371,575.541L401.995,555.565L395.659,561.813L395.659,575.541L383.867,575.541L383.867,511.301L395.659,511.301L395.659,550.285L414.139,529.517L426.723,529.517L409.563,549.053L427.955,575.541L415.371,575.541Z" style="fill:rgb(49,49,49);fill-rule:nonzero;"/>
            <path d="M454.179,576.421C450.483,576.421 447.139,575.79 444.147,574.529C441.155,573.267 438.603,571.551 436.491,569.381C434.379,567.21 432.751,564.687 431.607,561.813C430.463,558.938 429.891,555.917 429.891,552.749C429.891,549.463 430.448,546.369 431.563,543.465C432.678,540.561 434.291,538.009 436.403,535.809C438.515,533.609 441.082,531.863 444.103,530.573C447.124,529.282 450.512,528.637 454.267,528.637C458.022,528.637 461.38,529.282 464.343,530.573C467.306,531.863 469.828,533.594 471.911,535.765C473.994,537.935 475.578,540.458 476.663,543.333C477.748,546.207 478.291,549.199 478.291,552.309C478.291,553.071 478.276,553.805 478.247,554.509C478.218,555.213 478.144,555.799 478.027,556.269L442.387,556.269C442.563,558.087 443.003,559.701 443.707,561.109C444.411,562.517 445.32,563.719 446.435,564.717C447.55,565.714 448.811,566.477 450.219,567.005C451.627,567.533 453.094,567.797 454.619,567.797C456.966,567.797 459.18,567.225 461.263,566.081C463.346,564.937 464.768,563.426 465.531,561.549L475.651,564.365C473.95,567.885 471.236,570.774 467.511,573.033C463.786,575.291 459.342,576.421 454.179,576.421ZM466.147,548.613C465.854,545.151 464.578,542.379 462.319,540.297C460.06,538.214 457.318,537.173 454.091,537.173C452.507,537.173 451.026,537.451 449.647,538.009C448.268,538.566 447.051,539.343 445.995,540.341C444.939,541.338 444.074,542.541 443.399,543.949C442.724,545.357 442.328,546.911 442.211,548.613L466.147,548.613Z" style="fill:rgb(49,49,49);fill-rule:nonzero;"/>
            <path d="M485.243,511.301L497.035,511.301L497.035,560.757C497.035,562.458 497.446,563.778 498.267,564.717C499.088,565.655 500.262,566.125 501.787,566.125C502.491,566.125 503.268,566.007 504.119,565.773C504.97,565.538 505.776,565.245 506.539,564.893L508.123,573.869C506.539,574.631 504.691,575.218 502.579,575.629C500.467,576.039 498.56,576.245 496.859,576.245C493.163,576.245 490.303,575.262 488.279,573.297C486.255,571.331 485.243,568.53 485.243,564.893L485.243,511.301Z" style="fill:rgb(49,49,49);fill-rule:nonzero;"/>
            <path d="M513.051,575.541L513.051,529.429L524.843,529.429L524.843,575.541L513.051,575.541ZM513.051,523.005L513.051,511.301L524.843,511.301L524.843,523.005L513.051,523.005Z" style="fill:rgb(49,49,49);fill-rule:nonzero;"/>
            <path d="M531.531,592.789C529.302,592.789 527.19,592.451 525.195,591.777C523.2,591.102 521.411,590.061 519.827,588.653L524.931,580.645C525.576,581.29 526.368,581.774 527.307,582.097C528.246,582.419 529.184,582.581 530.123,582.581C531.648,582.581 532.968,582.038 534.083,580.953C535.198,579.867 535.755,578.474 535.755,576.773L535.755,529.429L547.547,529.429L547.547,575.893C547.547,578.357 547.136,580.63 546.315,582.713C545.494,584.795 544.364,586.585 542.927,588.081C541.49,589.577 539.788,590.735 537.823,591.557C535.858,592.378 533.76,592.789 531.531,592.789ZM535.755,523.005L535.755,511.301L547.547,511.301L547.547,523.005L535.755,523.005Z" style="fill:rgb(49,49,49);fill-rule:nonzero;"/>
            <path d="M589.611,575.541L576.235,555.565L569.899,561.813L569.899,575.541L558.107,575.541L558.107,511.301L569.899,511.301L569.899,550.285L588.379,529.517L600.963,529.517L583.803,549.053L602.195,575.541L589.611,575.541Z" style="fill:rgb(49,49,49);fill-rule:nonzero;"/>
        </g>
        <g transform="matrix(0.99,0,0,0.99,-6.87398,-8.79256)">
            <path d="M650.454,565.773C644.411,572.578 637.401,575.981 629.422,575.981C625.198,575.981 621.282,575.071 617.674,573.253C614.066,571.434 610.971,569.029 608.39,566.037C605.809,563.045 603.785,559.642 602.318,555.829C600.851,552.015 600.118,548.143 600.118,544.213C600.118,540.106 600.837,536.146 602.274,532.333C603.711,528.519 605.706,525.146 608.258,522.213C610.81,519.279 613.846,516.947 617.366,515.217C620.886,513.486 624.729,512.621 628.894,512.621C632.003,512.621 634.805,512.958 637.298,513.633C639.791,514.307 642.021,515.246 643.986,516.449C645.951,517.651 647.653,519.089 649.09,520.761C650.527,522.433 651.745,524.266 652.742,526.261L649.046,528.461C646.934,524.354 644.133,521.377 640.642,519.529C637.151,517.681 633.206,516.757 628.806,516.757C625.11,516.757 621.766,517.549 618.774,519.133C615.782,520.717 613.23,522.799 611.118,525.381C609.006,527.962 607.393,530.895 606.278,534.181C605.163,537.466 604.606,540.839 604.606,544.301C604.606,547.997 605.251,551.502 606.542,554.817C607.833,558.131 609.607,561.05 611.866,563.573C614.125,566.095 616.779,568.105 619.83,569.601C622.881,571.097 626.166,571.845 629.686,571.845C633.499,571.845 637.122,570.965 640.554,569.205C643.986,567.445 647.286,564.658 650.454,560.845L650.454,548.789L636.286,548.789L636.286,545.181L654.326,545.181L654.326,575.541L650.454,575.541L650.454,565.773Z" style="fill:rgb(49,49,49);fill-rule:nonzero;"/>
            <path d="M687.678,533.741C683.571,533.858 679.978,535.075 676.898,537.393C673.818,539.71 671.662,542.893 670.43,546.941L670.43,575.541L666.03,575.541L666.03,529.781L670.254,529.781L670.254,541.045C671.838,537.818 673.935,535.193 676.546,533.169C679.157,531.145 681.958,529.986 684.95,529.693C685.537,529.634 686.065,529.605 686.534,529.605C687.003,529.605 687.385,529.605 687.678,529.605L687.678,533.741Z" style="fill:rgb(49,49,49);fill-rule:nonzero;"/>
            <path d="M715.046,576.421C711.819,576.421 708.842,575.79 706.114,574.529C703.386,573.267 701.025,571.551 699.03,569.381C697.035,567.21 695.481,564.687 694.366,561.813C693.251,558.938 692.694,555.917 692.694,552.749C692.694,549.522 693.266,546.471 694.41,543.597C695.554,540.722 697.123,538.199 699.118,536.029C701.113,533.858 703.474,532.142 706.202,530.881C708.93,529.619 711.878,528.989 715.046,528.989C718.214,528.989 721.147,529.619 723.846,530.881C726.545,532.142 728.906,533.858 730.93,536.029C732.954,538.199 734.538,540.722 735.682,543.597C736.826,546.471 737.398,549.522 737.398,552.749C737.398,555.917 736.826,558.938 735.682,561.813C734.538,564.687 732.969,567.21 730.974,569.381C728.979,571.551 726.618,573.267 723.89,574.529C721.162,575.79 718.214,576.421 715.046,576.421ZM697.094,552.925C697.094,555.623 697.563,558.161 698.502,560.537C699.441,562.913 700.717,564.981 702.33,566.741C703.943,568.501 705.835,569.894 708.006,570.921C710.177,571.947 712.494,572.461 714.958,572.461C717.422,572.461 719.739,571.947 721.91,570.921C724.081,569.894 725.987,568.471 727.63,566.653C729.273,564.834 730.563,562.737 731.502,560.361C732.441,557.985 732.91,555.418 732.91,552.661C732.91,549.962 732.441,547.425 731.502,545.049C730.563,542.673 729.273,540.59 727.63,538.801C725.987,537.011 724.095,535.589 721.954,534.533C719.813,533.477 717.51,532.949 715.046,532.949C712.582,532.949 710.265,533.477 708.094,534.533C705.923,535.589 704.031,537.026 702.418,538.845C700.805,540.663 699.514,542.79 698.546,545.225C697.578,547.659 697.094,550.226 697.094,552.925Z" style="fill:rgb(49,49,49);fill-rule:nonzero;"/>
            <path d="M785.182,575.541L780.782,575.541L780.782,550.021C780.782,544.095 779.946,539.783 778.274,537.085C776.602,534.386 773.947,533.037 770.31,533.037C768.374,533.037 766.453,533.389 764.546,534.093C762.639,534.797 760.865,535.794 759.222,537.085C757.579,538.375 756.142,539.886 754.91,541.617C753.678,543.347 752.769,545.21 752.182,547.205L752.182,575.541L747.782,575.541L747.782,529.781L751.918,529.781L751.918,540.693C752.857,538.933 754.015,537.334 755.394,535.897C756.773,534.459 758.327,533.227 760.058,532.201C761.789,531.174 763.622,530.382 765.558,529.825C767.494,529.267 769.489,528.989 771.542,528.989C776.529,528.989 780.049,530.734 782.102,534.225C784.155,537.715 785.182,542.717 785.182,549.229L785.182,575.541Z" style="fill:rgb(49,49,49);fill-rule:nonzero;"/>
            <path d="M798.294,575.541L798.294,529.781L802.694,529.781L802.694,575.541L798.294,575.541ZM798.294,519.397L798.294,511.301L802.694,511.301L802.694,519.397L798.294,519.397Z" style="fill:rgb(49,49,49);fill-rule:nonzero;"/>
            <path d="M853.734,575.541L849.334,575.541L849.334,550.021C849.334,544.095 848.498,539.783 846.826,537.085C845.154,534.386 842.499,533.037 838.862,533.037C836.926,533.037 835.005,533.389 833.098,534.093C831.191,534.797 829.417,535.794 827.774,537.085C826.131,538.375 824.694,539.886 823.462,541.617C822.23,543.347 821.321,545.21 820.734,547.205L820.734,575.541L816.334,575.541L816.334,529.781L820.47,529.781L820.47,540.693C821.409,538.933 822.567,537.334 823.946,535.897C825.325,534.459 826.879,533.227 828.61,532.201C830.341,531.174 832.174,530.382 834.11,529.825C836.046,529.267 838.041,528.989 840.094,528.989C845.081,528.989 848.601,530.734 850.654,534.225C852.707,537.715 853.734,542.717 853.734,549.229L853.734,575.541Z" style="fill:rgb(49,49,49);fill-rule:nonzero;"/>
            <path d="M885.326,576.245C882.158,576.245 879.254,575.585 876.614,574.265C873.974,572.945 871.701,571.185 869.794,568.985C867.887,566.785 866.391,564.277 865.306,561.461C864.221,558.645 863.678,555.741 863.678,552.749C863.678,549.639 864.191,546.647 865.218,543.773C866.245,540.898 867.697,538.361 869.574,536.161C871.451,533.961 873.695,532.215 876.306,530.925C878.917,529.634 881.806,528.989 884.974,528.989C888.963,528.989 892.439,530.03 895.402,532.113C898.365,534.195 900.873,536.733 902.926,539.725L902.926,529.781L906.974,529.781L906.974,576.421C906.974,579.53 906.387,582.258 905.214,584.605C904.041,586.951 902.471,588.902 900.506,590.457C898.541,592.011 896.253,593.185 893.642,593.977C891.031,594.769 888.289,595.165 885.414,595.165C882.774,595.165 880.398,594.915 878.286,594.417C876.174,593.918 874.311,593.214 872.698,592.305C871.085,591.395 869.647,590.281 868.386,588.961C867.125,587.641 866.025,586.189 865.086,584.605L868.078,582.581C869.897,585.69 872.361,587.963 875.47,589.401C878.579,590.838 881.894,591.557 885.414,591.557C887.761,591.557 889.975,591.234 892.058,590.589C894.141,589.943 895.959,588.99 897.514,587.729C899.069,586.467 900.301,584.898 901.21,583.021C902.119,581.143 902.574,578.943 902.574,576.421L902.574,566.389C900.697,569.381 898.203,571.771 895.094,573.561C891.985,575.35 888.729,576.245 885.326,576.245ZM886.382,572.461C888.318,572.461 890.21,572.094 892.058,571.361C893.906,570.627 895.578,569.674 897.074,568.501C898.57,567.327 899.802,566.007 900.77,564.541C901.738,563.074 902.339,561.607 902.574,560.141L902.574,545.093C901.87,543.333 900.931,541.705 899.758,540.209C898.585,538.713 897.25,537.437 895.754,536.381C894.258,535.325 892.645,534.489 890.914,533.873C889.183,533.257 887.438,532.949 885.678,532.949C882.921,532.949 880.457,533.535 878.286,534.709C876.115,535.882 874.282,537.407 872.786,539.285C871.29,541.162 870.146,543.289 869.354,545.665C868.562,548.041 868.166,550.431 868.166,552.837C868.166,555.477 868.635,557.97 869.574,560.317C870.513,562.663 871.803,564.746 873.446,566.565C875.089,568.383 877.025,569.821 879.254,570.877C881.483,571.933 883.859,572.461 886.382,572.461Z" style="fill:rgb(49,49,49);fill-rule:nonzero;"/>
            <path d="M939.974,576.421C936.747,576.421 933.755,575.79 930.998,574.529C928.241,573.267 925.85,571.537 923.826,569.337C921.802,567.137 920.218,564.599 919.074,561.725C917.93,558.85 917.358,555.77 917.358,552.485C917.358,549.258 917.93,546.222 919.074,543.377C920.218,540.531 921.787,538.038 923.782,535.897C925.777,533.755 928.138,532.069 930.866,530.837C933.594,529.605 936.542,528.989 939.71,528.989C942.937,528.989 945.929,529.619 948.686,530.881C951.443,532.142 953.819,533.843 955.814,535.985C957.809,538.126 959.363,540.619 960.478,543.465C961.593,546.31 962.15,549.317 962.15,552.485C962.15,552.778 962.15,553.145 962.15,553.585C962.15,554.025 962.121,554.303 962.062,554.421L921.934,554.421C922.11,557.061 922.726,559.51 923.782,561.769C924.838,564.027 926.173,565.978 927.786,567.621C929.399,569.263 931.262,570.554 933.374,571.493C935.486,572.431 937.745,572.901 940.15,572.901C941.734,572.901 943.289,572.681 944.814,572.241C946.339,571.801 947.762,571.199 949.082,570.437C950.402,569.674 951.575,568.75 952.602,567.665C953.629,566.579 954.435,565.391 955.022,564.101L958.894,565.157C958.249,566.799 957.295,568.31 956.034,569.689C954.773,571.067 953.306,572.255 951.634,573.253C949.962,574.25 948.129,575.027 946.134,575.585C944.139,576.142 942.086,576.421 939.974,576.421ZM957.926,550.901C957.75,548.202 957.149,545.738 956.122,543.509C955.095,541.279 953.775,539.358 952.162,537.745C950.549,536.131 948.686,534.87 946.574,533.961C944.462,533.051 942.203,532.597 939.798,532.597C937.393,532.597 935.134,533.051 933.022,533.961C930.91,534.87 929.047,536.131 927.434,537.745C925.821,539.358 924.53,541.294 923.562,543.553C922.594,545.811 922.022,548.261 921.846,550.901L957.926,550.901Z" style="fill:rgb(49,49,49);fill-rule:nonzero;"/>
            <path d="M1009.05,575.541L1004.65,575.541L1004.65,550.021C1004.65,544.095 1003.81,539.783 1002.14,537.085C1000.47,534.386 997.815,533.037 994.178,533.037C992.242,533.037 990.321,533.389 988.414,534.093C986.507,534.797 984.733,535.794 983.09,537.085C981.447,538.375 980.01,539.886 978.778,541.617C977.546,543.347 976.637,545.21 976.05,547.205L976.05,575.541L971.65,575.541L971.65,529.781L975.786,529.781L975.786,540.693C976.725,538.933 977.883,537.334 979.262,535.897C980.641,534.459 982.195,533.227 983.926,532.201C985.657,531.174 987.49,530.382 989.426,529.825C991.362,529.267 993.357,528.989 995.41,528.989C1000.4,528.989 1003.92,530.734 1005.97,534.225C1008.02,537.715 1009.05,542.717 1009.05,549.229L1009.05,575.541Z" style="fill:rgb(49,49,49);fill-rule:nonzero;"/>
        </g>
    </g>
</svg>
